<?xml version="1.0" encoding="utf-8"?>
<svg xmlns="http://www.w3.org/2000/svg" xmlns:xlink="http://www.w3.org/1999/xlink" version="1.1" id="Layer_1" x="0px" y="0px" width="228px" height="40px" viewBox="0 0 228 40" style="enable-background:new 0 0 228 40;" xml:space="preserve">
<style type="text/css">
	.st0{fill:#623E63;}
</style>
<g>
	<g>
		<path class="st0" d="M48.79,16v4h4v4h4v-8H48.79z"/>
		<path class="st0" d="M4.79,12h-4v8h8v-4h-4L4.79,12L4.79,12z"/>
		<path class="st0" d="M20.79,0h-4v4h4V0z"/>
		<path class="st0" d="M40.79,8h-4V4h-16v4h-4v4h-4v16h4v4h4v4h4v-4h8v4h4v-4h4v-4h4V12h-4V8z M20.79,20v-4h4v4H20.79z M32.79,20v-4    h4v4H32.79z"/>
		<path class="st0" d="M40.79,0h-4v4h4V0z"/>
	</g>
	<g>
		<path class="st0" d="M122.79,16v4l6-0.3V24c0,1.06-0.42,2.08-1.17,2.83c-0.75,0.75-1.77,1.17-2.83,1.17h-4    c-1.06,0-2.08-0.42-2.83-1.17c-0.75-0.75-1.17-1.77-1.17-2.83V12c0-1.06,0.42-2.08,1.17-2.83c0.75-0.75,1.77-1.17,2.83-1.17h4    c0.87,0,1.72,0.29,2.41,0.81c0.69,0.52,1.2,1.26,1.44,2.1l3.85-1.09c-0.48-1.67-1.49-3.15-2.88-4.2C128.23,4.57,126.53,4,124.79,4    h-4c-2.12,0-4.15,0.85-5.65,2.35s-2.34,3.53-2.35,5.65v12c0,2.12,0.85,4.15,2.35,5.65c1.5,1.5,3.53,2.34,5.65,2.35h4    c2.12,0,4.15-0.85,5.65-2.35c1.5-1.5,2.34-3.53,2.35-5.65v-8H122.79z"/>
		<path class="st0" d="M97.79,4h-4v4l4-0.33v20.67l-4-0.33v4h12v-4l-4,0.33V7.67l4,0.33V4L97.79,4L97.79,4z"/>
		<path class="st0" d="M86.79,12c0-2.12-0.85-4.15-2.35-5.65S80.91,4,78.79,4h-12v28h12c1.63,0,3.21-0.49,4.55-1.42    c1.34-0.92,2.36-2.23,2.94-3.76c0.57-1.52,0.67-3.18,0.27-4.76c-0.4-1.58-1.26-3-2.49-4.07c0.86-0.75,1.54-1.67,2.01-2.71    C86.55,14.26,86.79,13.14,86.79,12L86.79,12z M78.79,28h-8v-8h8c1.06,0,2.08,0.42,2.83,1.17c0.75,0.75,1.17,1.77,1.17,2.83    s-0.42,2.08-1.17,2.83C80.87,27.58,79.85,28,78.79,28z M78.79,16h-8V8h8c1.06,0,2.08,0.42,2.83,1.17    c0.75,0.75,1.17,1.77,1.17,2.83s-0.42,2.08-1.17,2.83C80.87,15.58,79.85,16,78.79,16z"/>
		<path class="st0" d="M173.79,12c-1.62,0-3.21,0.39-4.65,1.14c-1.43,0.75-2.66,1.84-3.58,3.17c-0.92,1.33-1.5,2.87-1.7,4.47    c-0.2,1.61,0,3.24,0.57,4.75c0.57,1.51,1.5,2.87,2.71,3.94c1.21,1.07,2.66,1.84,4.23,2.23c1.57,0.39,3.21,0.39,4.78,0.01    c1.57-0.38,3.03-1.14,4.24-2.21l-2.65-3c-0.74,0.65-1.62,1.11-2.57,1.34c-0.95,0.23-1.95,0.22-2.9-0.03    c-0.95-0.25-1.82-0.72-2.55-1.39c-0.72-0.66-1.27-1.49-1.6-2.42h15.44c0.3-1.45,0.27-2.96-0.08-4.4    c-0.35-1.44-1.02-2.79-1.96-3.93s-2.12-2.07-3.46-2.71C176.74,12.33,175.28,12,173.79,12L173.79,12z M168.14,20    c0.41-1.17,1.18-2.18,2.19-2.9c1.01-0.72,2.22-1.1,3.46-1.1s2.45,0.38,3.46,1.1c1.01,0.72,1.78,1.73,2.19,2.9H168.14z"/>
		<path class="st0" d="M195.8,12c-1.62,0-3.21,0.39-4.65,1.14c-1.43,0.75-2.66,1.84-3.58,3.17c-0.92,1.33-1.5,2.87-1.7,4.47    c-0.2,1.61,0,3.24,0.57,4.75c0.57,1.51,1.5,2.87,2.71,3.94c1.21,1.07,2.66,1.84,4.23,2.23c1.57,0.39,3.21,0.39,4.78,0.01    c1.57-0.38,3.03-1.14,4.24-2.21l-2.65-3c-0.74,0.65-1.62,1.11-2.57,1.34c-0.95,0.23-1.95,0.22-2.9-0.03    c-0.95-0.25-1.82-0.72-2.55-1.39c-0.72-0.66-1.27-1.49-1.6-2.42h15.44c0.3-1.45,0.27-2.95-0.08-4.4    c-0.35-1.44-1.02-2.79-1.96-3.93c-0.94-1.15-2.12-2.08-3.46-2.71C198.74,12.33,197.28,12,195.8,12L195.8,12z M190.14,20    c0.41-1.17,1.18-2.18,2.19-2.9c1.01-0.72,2.22-1.1,3.46-1.1s2.45,0.38,3.46,1.1c1.01,0.72,1.78,1.73,2.19,2.9H190.14z"/>
		<path class="st0" d="M150.79,12c-1.59,0-3.15,0.37-4.57,1.09c-1.41,0.72-2.64,1.77-3.56,3.05c-0.93,1.29-1.54,2.78-1.78,4.34    c-0.24,1.57-0.1,3.17,0.4,4.68c0.5,1.51,1.36,2.87,2.49,3.98c1.13,1.11,2.52,1.94,4.03,2.41c1.52,0.47,3.12,0.57,4.68,0.3    c1.56-0.27,3.04-0.91,4.31-1.87V30c0,1.15-0.33,2.29-0.96,3.25c-0.63,0.97-1.52,1.74-2.57,2.21c-1.05,0.48-2.22,0.64-3.36,0.46    c-1.14-0.17-2.21-0.67-3.08-1.43l-2.65,3c1.44,1.27,3.22,2.1,5.13,2.39c1.9,0.29,3.85,0.02,5.6-0.77    c1.75-0.79,3.24-2.07,4.29-3.69s1.6-3.5,1.6-5.42v-8c0-2.65-1.06-5.19-2.93-7.07C155.99,13.06,153.44,12,150.79,12z M150.79,28    c-1.19,0-2.35-0.35-3.33-1.01c-0.99-0.66-1.76-1.6-2.21-2.69c-0.45-1.1-0.57-2.3-0.34-3.47c0.23-1.16,0.8-2.23,1.64-3.07    c0.84-0.84,1.91-1.41,3.07-1.64c1.16-0.23,2.37-0.11,3.47,0.34c1.1,0.45,2.03,1.22,2.69,2.21c0.66,0.99,1.01,2.15,1.01,3.33    c0,1.59-0.64,3.12-1.76,4.24C153.91,27.37,152.38,28,150.79,28L150.79,28z"/>
		<path class="st0" d="M227.21,29.59l-7.75-7.75l5.92-7.61l-3.16-2.46l-6.4,8.23h-3.02V4h-4v28h4v-8h3.17l8.41,8.41L227.21,29.59z"/>
	</g>
</g>
</svg>
